<svg width="200" height="48" viewBox="0 0 200 48" fill="none" xmlns="http://www.w3.org/2000/svg">
  <!-- Icon: Globe with blockchain nodes -->
  <defs>
    <linearGradient id="logoGradient" x1="0%" y1="0%" x2="100%" y2="100%">
      <stop offset="0%" style="stop-color:#7c3aed;stop-opacity:1" />
      <stop offset="100%" style="stop-color:#c026d3;stop-opacity:1" />
    </linearGradient>
  </defs>

  <!-- Rounded square background -->
  <rect x="2" y="2" width="44" height="44" rx="10" fill="url(#logoGradient)"/>

  <!-- Globe outline -->
  <circle cx="24" cy="24" r="13" stroke="white" stroke-width="2" fill="none" opacity="0.9"/>

  <!-- Latitude lines -->
  <ellipse cx="24" cy="24" rx="13" ry="5" stroke="white" stroke-width="1.5" fill="none" opacity="0.6"/>
  <ellipse cx="24" cy="24" rx="13" ry="9" stroke="white" stroke-width="1" fill="none" opacity="0.4"/>

  <!-- Longitude line -->
  <path d="M 24 11 Q 30 24 24 37" stroke="white" stroke-width="1.5" fill="none" opacity="0.6"/>
  <path d="M 24 11 Q 18 24 24 37" stroke="white" stroke-width="1.5" fill="none" opacity="0.6"/>

  <!-- Blockchain nodes (small dots) -->
  <circle cx="24" cy="11" r="2" fill="white"/>
  <circle cx="33" cy="18" r="1.5" fill="white" opacity="0.8"/>
  <circle cx="37" cy="24" r="2" fill="white"/>
  <circle cx="33" cy="30" r="1.5" fill="white" opacity="0.8"/>
  <circle cx="24" cy="37" r="2" fill="white"/>
  <circle cx="15" cy="30" r="1.5" fill="white" opacity="0.8"/>
  <circle cx="11" cy="24" r="2" fill="white"/>
  <circle cx="15" cy="18" r="1.5" fill="white" opacity="0.8"/>

  <!-- Text: CryptoNomadHub -->
  <text x="56" y="20" font-family="system-ui, -apple-system, sans-serif" font-size="14" font-weight="700" fill="#0f172a">
    CryptoNomad
  </text>
  <text x="56" y="35" font-family="system-ui, -apple-system, sans-serif" font-size="14" font-weight="700" fill="url(#logoGradient)">
    Hub
  </text>
</svg>
